<mxfile host="app.diagrams.net" modified="2023-01-10T14:21:26.133Z" agent="5.0 (Macintosh; Intel Mac OS X 10_15_7) AppleWebKit/537.36 (KHTML, like Gecko) Chrome/108.0.0.0 Safari/537.36" version="20.8.3" etag="Hg2f3coGJ_QrosOARDOT" type="github">
  <diagram id="dHrR71HzSHLAMjjxXmuo" name="第 1 页">
    <mxGraphModel dx="1306" dy="765" grid="1" gridSize="10" guides="1" tooltips="1" connect="1" arrows="1" fold="1" page="1" pageScale="1" pageWidth="827" pageHeight="1169" math="0" shadow="0">
      <root>
        <mxCell id="0" />
        <mxCell id="1" parent="0" />
        <mxCell id="9a4Nvgae0vwim2I87Gne-9" value="" style="rounded=0;whiteSpace=wrap;html=1;" vertex="1" parent="1">
          <mxGeometry x="80" y="641" width="510" height="320" as="geometry" />
        </mxCell>
        <mxCell id="9a4Nvgae0vwim2I87Gne-11" value="请求队列（异步非阻塞有限队列）" style="strokeWidth=2;html=1;shape=mxgraph.flowchart.multi-document;whiteSpace=wrap;fontSize=14;" vertex="1" parent="1">
          <mxGeometry x="285" y="666" width="255" height="60" as="geometry" />
        </mxCell>
        <mxCell id="9a4Nvgae0vwim2I87Gne-40" style="edgeStyle=none;rounded=0;orthogonalLoop=1;jettySize=auto;html=1;entryX=0;entryY=0.5;entryDx=0;entryDy=0;entryPerimeter=0;fontSize=18;" edge="1" parent="1" source="9a4Nvgae0vwim2I87Gne-12" target="9a4Nvgae0vwim2I87Gne-39">
          <mxGeometry relative="1" as="geometry" />
        </mxCell>
        <mxCell id="9a4Nvgae0vwim2I87Gne-12" value="发送队列（异步非阻塞有限队列）" style="strokeWidth=2;html=1;shape=mxgraph.flowchart.multi-document;whiteSpace=wrap;fontSize=14;" vertex="1" parent="1">
          <mxGeometry x="280" y="876" width="270" height="60" as="geometry" />
        </mxCell>
        <mxCell id="9a4Nvgae0vwim2I87Gne-24" value="高性能采集算法" style="rounded=0;whiteSpace=wrap;html=1;fontSize=14;" vertex="1" parent="1">
          <mxGeometry x="285" y="776" width="245" height="45" as="geometry" />
        </mxCell>
        <mxCell id="9a4Nvgae0vwim2I87Gne-35" value="" style="shape=flexArrow;endArrow=classic;html=1;rounded=0;fontSize=14;width=16;endSize=7.92;" edge="1" parent="1">
          <mxGeometry width="50" height="50" relative="1" as="geometry">
            <mxPoint x="404.5" y="726" as="sourcePoint" />
            <mxPoint x="404.5" y="773.5" as="targetPoint" />
          </mxGeometry>
        </mxCell>
        <mxCell id="9a4Nvgae0vwim2I87Gne-36" value="" style="shape=flexArrow;endArrow=classic;html=1;rounded=0;fontSize=14;width=16;endSize=7.92;" edge="1" parent="1">
          <mxGeometry width="50" height="50" relative="1" as="geometry">
            <mxPoint x="404.5" y="824" as="sourcePoint" />
            <mxPoint x="404.5" y="871.5" as="targetPoint" />
          </mxGeometry>
        </mxCell>
        <mxCell id="9a4Nvgae0vwim2I87Gne-37" value="" style="endArrow=classic;html=1;rounded=0;fontSize=18;entryX=0;entryY=0.5;entryDx=0;entryDy=0;entryPerimeter=0;exitX=1;exitY=0.25;exitDx=0;exitDy=0;" edge="1" parent="1" source="9a4Nvgae0vwim2I87Gne-29" target="9a4Nvgae0vwim2I87Gne-11">
          <mxGeometry width="50" height="50" relative="1" as="geometry">
            <mxPoint x="120" y="871" as="sourcePoint" />
            <mxPoint x="170" y="821" as="targetPoint" />
          </mxGeometry>
        </mxCell>
        <mxCell id="9a4Nvgae0vwim2I87Gne-27" value="" style="shape=flexArrow;endArrow=classic;html=1;rounded=0;endWidth=50;endSize=31.67;width=54;fillColor=#f5f5f5;strokeColor=#666666;" edge="1" parent="1">
          <mxGeometry width="50" height="50" relative="1" as="geometry">
            <mxPoint x="170" y="550" as="sourcePoint" />
            <mxPoint x="170" y="1070" as="targetPoint" />
          </mxGeometry>
        </mxCell>
        <mxCell id="9a4Nvgae0vwim2I87Gne-29" value="主&lt;br style=&quot;font-size: 18px;&quot;&gt;流&lt;br style=&quot;font-size: 18px;&quot;&gt;程&lt;br style=&quot;font-size: 18px;&quot;&gt;请&lt;br style=&quot;font-size: 18px;&quot;&gt;求&lt;br style=&quot;font-size: 18px;&quot;&gt;流&lt;br style=&quot;font-size: 18px;&quot;&gt;量" style="text;html=1;strokeColor=none;fillColor=none;align=center;verticalAlign=middle;whiteSpace=wrap;rounded=0;fontSize=18;" vertex="1" parent="1">
          <mxGeometry x="152" y="637" width="40" height="240" as="geometry" />
        </mxCell>
        <mxCell id="9a4Nvgae0vwim2I87Gne-39" value="外部存储" style="shape=cylinder3;whiteSpace=wrap;html=1;boundedLbl=1;backgroundOutline=1;size=15;fontSize=18;" vertex="1" parent="1">
          <mxGeometry x="650" y="866" width="130" height="80" as="geometry" />
        </mxCell>
        <mxCell id="9a4Nvgae0vwim2I87Gne-41" value="" style="rounded=0;whiteSpace=wrap;html=1;fontSize=14;" vertex="1" parent="1">
          <mxGeometry x="72.5" y="150" width="670" height="280" as="geometry" />
        </mxCell>
        <mxCell id="9a4Nvgae0vwim2I87Gne-42" value="" style="rounded=0;whiteSpace=wrap;html=1;fontSize=14;fillColor=#fff2cc;strokeColor=#d6b656;" vertex="1" parent="1">
          <mxGeometry x="92.5" y="206" width="190" height="189" as="geometry" />
        </mxCell>
        <mxCell id="9a4Nvgae0vwim2I87Gne-43" value="" style="rounded=0;whiteSpace=wrap;html=1;fontSize=14;fillColor=#ffe6cc;strokeColor=#d79b00;" vertex="1" parent="1">
          <mxGeometry x="312.5" y="206" width="190" height="189" as="geometry" />
        </mxCell>
        <mxCell id="9a4Nvgae0vwim2I87Gne-44" value="" style="rounded=0;whiteSpace=wrap;html=1;fontSize=14;fillColor=#f8cecc;strokeColor=#b85450;" vertex="1" parent="1">
          <mxGeometry x="532.5" y="206" width="190" height="189" as="geometry" />
        </mxCell>
        <mxCell id="9a4Nvgae0vwim2I87Gne-45" value="发送器" style="text;html=1;strokeColor=none;fillColor=none;align=center;verticalAlign=middle;whiteSpace=wrap;rounded=0;fontSize=14;" vertex="1" parent="1">
          <mxGeometry x="162.5" y="207" width="60" height="30" as="geometry" />
        </mxCell>
        <mxCell id="9a4Nvgae0vwim2I87Gne-46" value="收集器" style="text;html=1;strokeColor=none;fillColor=none;align=center;verticalAlign=middle;whiteSpace=wrap;rounded=0;fontSize=14;" vertex="1" parent="1">
          <mxGeometry x="377.5" y="206" width="60" height="30" as="geometry" />
        </mxCell>
        <mxCell id="9a4Nvgae0vwim2I87Gne-47" value="采样库" style="text;html=1;strokeColor=none;fillColor=none;align=center;verticalAlign=middle;whiteSpace=wrap;rounded=0;fontSize=14;" vertex="1" parent="1">
          <mxGeometry x="597.5" y="206" width="60" height="30" as="geometry" />
        </mxCell>
        <mxCell id="9a4Nvgae0vwim2I87Gne-48" value="降采样模块" style="text;html=1;strokeColor=none;fillColor=none;align=center;verticalAlign=middle;whiteSpace=wrap;rounded=0;fontSize=14;" vertex="1" parent="1">
          <mxGeometry x="372.5" y="160" width="90" height="30" as="geometry" />
        </mxCell>
        <mxCell id="9a4Nvgae0vwim2I87Gne-49" value="本地发送器" style="rounded=0;whiteSpace=wrap;html=1;fontSize=14;" vertex="1" parent="1">
          <mxGeometry x="117.5" y="246" width="140" height="34" as="geometry" />
        </mxCell>
        <mxCell id="9a4Nvgae0vwim2I87Gne-50" value="kafka发送器" style="rounded=0;whiteSpace=wrap;html=1;fontSize=14;" vertex="1" parent="1">
          <mxGeometry x="117.5" y="296" width="140" height="34" as="geometry" />
        </mxCell>
        <mxCell id="9a4Nvgae0vwim2I87Gne-51" value="......" style="rounded=0;whiteSpace=wrap;html=1;fontSize=14;" vertex="1" parent="1">
          <mxGeometry x="117.5" y="347" width="140" height="34" as="geometry" />
        </mxCell>
        <mxCell id="9a4Nvgae0vwim2I87Gne-52" value="缓冲队列" style="rounded=0;whiteSpace=wrap;html=1;fontSize=14;" vertex="1" parent="1">
          <mxGeometry x="337.5" y="245.5" width="140" height="34" as="geometry" />
        </mxCell>
        <mxCell id="9a4Nvgae0vwim2I87Gne-53" value="消费work" style="rounded=0;whiteSpace=wrap;html=1;fontSize=14;" vertex="1" parent="1">
          <mxGeometry x="337.5" y="295.5" width="140" height="34" as="geometry" />
        </mxCell>
        <mxCell id="9a4Nvgae0vwim2I87Gne-54" value="发送work" style="rounded=0;whiteSpace=wrap;html=1;fontSize=14;" vertex="1" parent="1">
          <mxGeometry x="337.5" y="346.5" width="140" height="34" as="geometry" />
        </mxCell>
        <mxCell id="9a4Nvgae0vwim2I87Gne-55" value="FilterStrategy" style="rounded=0;whiteSpace=wrap;html=1;fontSize=14;" vertex="1" parent="1">
          <mxGeometry x="557.5" y="245" width="140" height="34" as="geometry" />
        </mxCell>
        <mxCell id="9a4Nvgae0vwim2I87Gne-56" value="DWLFUStrategy" style="rounded=0;whiteSpace=wrap;html=1;fontSize=14;" vertex="1" parent="1">
          <mxGeometry x="557.5" y="295" width="140" height="34" as="geometry" />
        </mxCell>
        <mxCell id="9a4Nvgae0vwim2I87Gne-57" value="......" style="rounded=0;whiteSpace=wrap;html=1;fontSize=14;" vertex="1" parent="1">
          <mxGeometry x="557.5" y="346" width="140" height="34" as="geometry" />
        </mxCell>
        <mxCell id="9a4Nvgae0vwim2I87Gne-58" value="" style="rounded=0;whiteSpace=wrap;html=1;fontSize=24;" vertex="1" parent="1">
          <mxGeometry x="40" y="1294" width="450" height="60" as="geometry" />
        </mxCell>
        <mxCell id="9a4Nvgae0vwim2I87Gne-59" value="A" style="rounded=0;whiteSpace=wrap;html=1;fillColor=#d5e8d4;strokeColor=#82b366;fontSize=24;" vertex="1" parent="1">
          <mxGeometry x="40" y="1294" width="50" height="60" as="geometry" />
        </mxCell>
        <mxCell id="9a4Nvgae0vwim2I87Gne-60" value="B" style="rounded=0;whiteSpace=wrap;html=1;fontSize=24;" vertex="1" parent="1">
          <mxGeometry x="90" y="1294" width="50" height="60" as="geometry" />
        </mxCell>
        <mxCell id="9a4Nvgae0vwim2I87Gne-61" value="A" style="rounded=0;whiteSpace=wrap;html=1;fillColor=#d5e8d4;strokeColor=#82b366;fontSize=24;" vertex="1" parent="1">
          <mxGeometry x="140" y="1294" width="50" height="60" as="geometry" />
        </mxCell>
        <mxCell id="9a4Nvgae0vwim2I87Gne-62" value="A" style="rounded=0;whiteSpace=wrap;html=1;fillColor=#d5e8d4;strokeColor=#82b366;fontSize=24;" vertex="1" parent="1">
          <mxGeometry x="240" y="1294" width="50" height="60" as="geometry" />
        </mxCell>
        <mxCell id="9a4Nvgae0vwim2I87Gne-63" value="B" style="rounded=0;whiteSpace=wrap;html=1;fontSize=24;" vertex="1" parent="1">
          <mxGeometry x="190" y="1294" width="50" height="60" as="geometry" />
        </mxCell>
        <mxCell id="9a4Nvgae0vwim2I87Gne-64" value="C" style="rounded=0;whiteSpace=wrap;html=1;fillColor=#ffe6cc;strokeColor=#d79b00;fontSize=24;" vertex="1" parent="1">
          <mxGeometry x="290" y="1294" width="50" height="60" as="geometry" />
        </mxCell>
        <mxCell id="9a4Nvgae0vwim2I87Gne-65" value="D" style="rounded=0;whiteSpace=wrap;html=1;fillColor=#f8cecc;strokeColor=#b85450;fontSize=24;" vertex="1" parent="1">
          <mxGeometry x="340" y="1294" width="50" height="60" as="geometry" />
        </mxCell>
        <mxCell id="9a4Nvgae0vwim2I87Gne-66" value="D" style="rounded=0;whiteSpace=wrap;html=1;fillColor=#f8cecc;strokeColor=#b85450;fontSize=24;" vertex="1" parent="1">
          <mxGeometry x="390" y="1294" width="50" height="60" as="geometry" />
        </mxCell>
        <mxCell id="9a4Nvgae0vwim2I87Gne-67" value="D" style="rounded=0;whiteSpace=wrap;html=1;fillColor=#f8cecc;strokeColor=#b85450;fontSize=24;" vertex="1" parent="1">
          <mxGeometry x="440" y="1294" width="50" height="60" as="geometry" />
        </mxCell>
        <mxCell id="9a4Nvgae0vwim2I87Gne-68" value="" style="shape=flexArrow;endArrow=classic;html=1;endSize=4.7;width=2;" edge="1" parent="1">
          <mxGeometry width="50" height="50" relative="1" as="geometry">
            <mxPoint x="463" y="1476.5" as="sourcePoint" />
            <mxPoint x="371" y="1477" as="targetPoint" />
          </mxGeometry>
        </mxCell>
        <mxCell id="9a4Nvgae0vwim2I87Gne-69" value="" style="rounded=0;whiteSpace=wrap;html=1;" vertex="1" parent="1">
          <mxGeometry x="250" y="1444" width="100" height="60" as="geometry" />
        </mxCell>
        <mxCell id="9a4Nvgae0vwim2I87Gne-70" value="A&lt;br style=&quot;font-size: 15px;&quot;&gt;count:3&lt;br style=&quot;font-size: 15px;&quot;&gt;wc:1" style="rounded=0;whiteSpace=wrap;html=1;fillColor=#ffe6cc;strokeColor=#d79b00;fontSize=15;" vertex="1" parent="1">
          <mxGeometry x="250" y="1444" width="50" height="60" as="geometry" />
        </mxCell>
        <mxCell id="9a4Nvgae0vwim2I87Gne-71" value="B&lt;br style=&quot;font-size: 15px;&quot;&gt;count:2&lt;br style=&quot;font-size: 15px;&quot;&gt;wc:0" style="rounded=0;whiteSpace=wrap;html=1;fontSize=15;" vertex="1" parent="1">
          <mxGeometry x="300" y="1444" width="50" height="60" as="geometry" />
        </mxCell>
        <mxCell id="9a4Nvgae0vwim2I87Gne-72" value="" style="rounded=0;whiteSpace=wrap;html=1;fillColor=none;strokeColor=#A50040;fontColor=#ffffff;strokeWidth=3;fontSize=24;" vertex="1" parent="1">
          <mxGeometry x="242" y="1284" width="198" height="76" as="geometry" />
        </mxCell>
        <mxCell id="9a4Nvgae0vwim2I87Gne-73" value="D&lt;br style=&quot;font-size: 15px;&quot;&gt;count:2&lt;br style=&quot;font-size: 15px;&quot;&gt;wc:2" style="rounded=0;whiteSpace=wrap;html=1;fillColor=#f8cecc;strokeColor=#b85450;fontSize=15;" vertex="1" parent="1">
          <mxGeometry x="471" y="1444" width="50" height="60" as="geometry" />
        </mxCell>
        <mxCell id="9a4Nvgae0vwim2I87Gne-74" value="" style="shape=singleArrow;direction=west;whiteSpace=wrap;html=1;strokeWidth=3;fillColor=none;rotation=-90;" vertex="1" parent="1">
          <mxGeometry x="313" y="1373" width="56" height="60" as="geometry" />
        </mxCell>
        <mxCell id="9a4Nvgae0vwim2I87Gne-75" value="替换B" style="text;html=1;strokeColor=none;fillColor=none;align=center;verticalAlign=middle;whiteSpace=wrap;rounded=0;" vertex="1" parent="1">
          <mxGeometry x="409" y="1449" width="40" height="20" as="geometry" />
        </mxCell>
        <mxCell id="9a4Nvgae0vwim2I87Gne-76" style="edgeStyle=none;rounded=0;orthogonalLoop=1;jettySize=auto;html=1;entryX=0;entryY=0.5;entryDx=0;entryDy=0;fontSize=18;" edge="1" parent="1" source="9a4Nvgae0vwim2I87Gne-77" target="9a4Nvgae0vwim2I87Gne-84">
          <mxGeometry relative="1" as="geometry" />
        </mxCell>
        <mxCell id="9a4Nvgae0vwim2I87Gne-77" value="A" style="rounded=0;whiteSpace=wrap;html=1;fillColor=#d5e8d4;strokeColor=#82b366;fontSize=24;" vertex="1" parent="1">
          <mxGeometry x="589" y="1305" width="60" height="49" as="geometry" />
        </mxCell>
        <mxCell id="9a4Nvgae0vwim2I87Gne-78" style="edgeStyle=none;rounded=0;orthogonalLoop=1;jettySize=auto;html=1;entryX=0;entryY=0.5;entryDx=0;entryDy=0;fontSize=18;" edge="1" parent="1" source="9a4Nvgae0vwim2I87Gne-79" target="9a4Nvgae0vwim2I87Gne-85">
          <mxGeometry relative="1" as="geometry" />
        </mxCell>
        <mxCell id="9a4Nvgae0vwim2I87Gne-79" value="B" style="rounded=0;whiteSpace=wrap;html=1;fontSize=24;" vertex="1" parent="1">
          <mxGeometry x="589" y="1354" width="60" height="49" as="geometry" />
        </mxCell>
        <mxCell id="9a4Nvgae0vwim2I87Gne-80" style="edgeStyle=none;rounded=0;orthogonalLoop=1;jettySize=auto;html=1;entryX=0;entryY=0.5;entryDx=0;entryDy=0;fontSize=18;" edge="1" parent="1" source="9a4Nvgae0vwim2I87Gne-81" target="9a4Nvgae0vwim2I87Gne-86">
          <mxGeometry relative="1" as="geometry" />
        </mxCell>
        <mxCell id="9a4Nvgae0vwim2I87Gne-81" value="C" style="rounded=0;whiteSpace=wrap;html=1;fillColor=#ffe6cc;strokeColor=#d79b00;fontSize=24;" vertex="1" parent="1">
          <mxGeometry x="589" y="1403" width="60" height="49" as="geometry" />
        </mxCell>
        <mxCell id="9a4Nvgae0vwim2I87Gne-82" style="edgeStyle=none;rounded=0;orthogonalLoop=1;jettySize=auto;html=1;entryX=0;entryY=0.5;entryDx=0;entryDy=0;fontSize=18;" edge="1" parent="1" source="9a4Nvgae0vwim2I87Gne-83" target="9a4Nvgae0vwim2I87Gne-87">
          <mxGeometry relative="1" as="geometry" />
        </mxCell>
        <mxCell id="9a4Nvgae0vwim2I87Gne-83" value="D" style="rounded=0;whiteSpace=wrap;html=1;fillColor=#f8cecc;strokeColor=#b85450;fontSize=24;" vertex="1" parent="1">
          <mxGeometry x="589" y="1452" width="60" height="49" as="geometry" />
        </mxCell>
        <mxCell id="9a4Nvgae0vwim2I87Gne-84" value="count:3&lt;br style=&quot;font-size: 18px;&quot;&gt;wc:1" style="rounded=0;whiteSpace=wrap;html=1;fillColor=#d5e8d4;strokeColor=#82b366;fontSize=18;" vertex="1" parent="1">
          <mxGeometry x="697" y="1305" width="60" height="49" as="geometry" />
        </mxCell>
        <mxCell id="9a4Nvgae0vwim2I87Gne-85" value="count:2&lt;br style=&quot;font-size: 18px;&quot;&gt;wc:0" style="rounded=0;whiteSpace=wrap;html=1;fontSize=18;" vertex="1" parent="1">
          <mxGeometry x="697" y="1354" width="60" height="49" as="geometry" />
        </mxCell>
        <mxCell id="9a4Nvgae0vwim2I87Gne-86" value="count:1&lt;br style=&quot;font-size: 18px;&quot;&gt;wc:1" style="rounded=0;whiteSpace=wrap;html=1;fillColor=#ffe6cc;strokeColor=#d79b00;fontSize=18;" vertex="1" parent="1">
          <mxGeometry x="697" y="1403" width="60" height="49" as="geometry" />
        </mxCell>
        <mxCell id="9a4Nvgae0vwim2I87Gne-87" value="count:2&lt;br style=&quot;font-size: 18px;&quot;&gt;wc:2" style="rounded=0;whiteSpace=wrap;html=1;fillColor=#f8cecc;strokeColor=#b85450;fontSize=18;" vertex="1" parent="1">
          <mxGeometry x="697" y="1452" width="60" height="49" as="geometry" />
        </mxCell>
        <mxCell id="9a4Nvgae0vwim2I87Gne-88" value="&lt;font style=&quot;font-size: 24px&quot;&gt;windows&lt;/font&gt;" style="text;html=1;strokeColor=none;fillColor=none;align=center;verticalAlign=middle;whiteSpace=wrap;rounded=0;" vertex="1" parent="1">
          <mxGeometry x="234" y="1240" width="40" height="20" as="geometry" />
        </mxCell>
        <mxCell id="9a4Nvgae0vwim2I87Gne-89" value="&lt;font style=&quot;font-size: 24px&quot;&gt;protection&lt;br&gt;&lt;/font&gt;" style="text;html=1;strokeColor=none;fillColor=none;align=center;verticalAlign=middle;whiteSpace=wrap;rounded=0;" vertex="1" parent="1">
          <mxGeometry x="290" y="1525" width="40" height="20" as="geometry" />
        </mxCell>
        <mxCell id="9a4Nvgae0vwim2I87Gne-90" value="&lt;pre style=&quot;font-family: &amp;#34;droid sans mono&amp;#34; , monospace ; font-size: 15pt&quot;&gt;&lt;span&gt;freqMap&lt;/span&gt;&lt;/pre&gt;" style="text;html=1;strokeColor=none;fillColor=none;align=center;verticalAlign=middle;whiteSpace=wrap;rounded=0;" vertex="1" parent="1">
          <mxGeometry x="651" y="1525" width="40" height="20" as="geometry" />
        </mxCell>
        <mxCell id="9a4Nvgae0vwim2I87Gne-91" value="预发Kstack文章图" style="text;html=1;strokeColor=none;fillColor=none;align=center;verticalAlign=middle;whiteSpace=wrap;rounded=0;fontSize=22;" vertex="1" parent="1">
          <mxGeometry x="250" y="40" width="260" height="30" as="geometry" />
        </mxCell>
      </root>
    </mxGraphModel>
  </diagram>
</mxfile>
